# xmcd CD database file
#
# Track frame offsets:
#	150
#	14775
#	27840
#	44305
#	61554
#	77085
#	90055
#	102864
#	118233
#
# Disc length: 1867 seconds
#
# Revision: 0
# Processed by: cddbd v1.5.2PL0 Copyright (c) Steve Scherf et al.
# Submitted via: CDex 2.14
#
DISCID=62074909
DTITLE=the Towne Dandies - My First Stampede
DYEAR=1998
DGENRE=Country
TTITLE0=My First STampede
TTITLE1=Haircuts Now!
TTITLE2=Tough Guy Bar
TTITLE3=Mustache Country
TTITLE4=Out Here
TTITLE5=Manly Footwear
TTITLE6=That's a Bearcat, Bob
TTITLE7=Balloons for Sale
TTITLE8=Hartley Brothers
EXTD=YEAR: 1998
EXTT0=
EXTT1=
EXTT2=
EXTT3=
EXTT4=
EXTT5=
EXTT6=
EXTT7=
EXTT8=
PLAYORDER=
